<?xml version="1.0" standalone="no"?><!DOCTYPE svg PUBLIC "-//W3C//DTD SVG 1.1//EN" "http://www.w3.org/Graphics/SVG/1.1/DTD/svg11.dtd"><svg t="1685675663207" class="icon" viewBox="0 0 1024 1024" version="1.1" xmlns="http://www.w3.org/2000/svg" p-id="2434" xmlns:xlink="http://www.w3.org/1999/xlink" width="200" height="200"><path d="M856.646963 678.163277h-64.070058a36.636746 36.636746 0 1 1 0-73.253826h64.070058c27.531639 0 50.933533-27.098999 50.933533-59.153694V132.407521c0-32.054695-23.323232-59.134029-50.933533-59.134029H167.353037c-27.531639 0-50.933533 27.079334-50.933533 59.134029v413.348236c0 32.054695 23.323232 59.153694 50.933533 59.153694h74.27643a36.636746 36.636746 0 0 1 0 73.253826H167.353037C98.877917 678.163277 43.165678 618.773598 43.165678 545.755757V132.407521C43.165678 59.409345 98.877917 0 167.353037 0h689.293926c68.475121 0 124.18736 59.409345 124.187359 132.407521v413.348236c0 73.017841-55.712239 132.407521-124.187359 132.40752zM760.817192 1024a125.858923 125.858923 0 1 1 125.858923-125.858923 125.858923 125.858923 0 0 1-125.858923 125.858923z m0-185.681243a59.881316 59.881316 0 1 0 59.86165 59.881316 59.940312 59.940312 0 0 0-59.86165-59.881316zM274.510111 1014.540915a125.996582 125.996582 0 0 1-119.959286-88.494555 125.563942 125.563942 0 1 1 119.959286 88.494555z m-57.029824-108.160012a59.86165 59.86165 0 1 0 39.330913-74.945056 59.488007 59.488007 0 0 0-39.330913 74.945056z" fill="#231815" p-id="2435"></path><path d="M789.428149 290.750407m1.752103 1.752103l40.006347 40.006348q1.752103 1.752103 0 3.504205l-501.017969 501.01797q-1.752103 1.752103-3.504206 0l-40.006347-40.006348q-1.752103-1.752103 0-3.504205l501.017969-501.01797q1.752103-1.752103 3.504206 0Z" fill="#231815" p-id="2436"></path><path d="M328.413128 844.985347a9.69507 9.69507 0 0 1-6.863244-2.831826l-40.019205-40.019204a9.734401 9.734401 0 0 1 0-13.76582l501.036508-500.977512a9.537747 9.537747 0 0 1 6.863245-2.851491 9.69507 9.69507 0 0 1 6.863244 2.831826l39.999539 40.019204a9.69507 9.69507 0 0 1 0 13.76582L335.276373 842.153521a9.69507 9.69507 0 0 1-6.863245 2.831826z m-33.293618-49.714275l33.293618 33.273953 494.23226-494.291256-33.273953-33.273953z" fill="#231815" p-id="2437"></path><path d="M206.681568 334.252001m1.752102-1.752103l40.006348-40.006347q1.752103-1.752103 3.504206 0l501.017969 501.01797q1.752103 1.752103 0 3.504205l-40.006347 40.006348q-1.752103 1.752103-3.504206 0l-501.01797-501.01797q-1.752103-1.752103 0-3.504206Z" fill="#231815" p-id="2438"></path><path d="M711.201244 847.384533a12.07459 12.07459 0 0 1-8.574139-3.520117L201.590597 342.827908a12.133587 12.133587 0 0 1 0-17.148278l39.99954-39.999539a12.153252 12.153252 0 0 1 17.148278 0l500.977511 501.016842a12.153252 12.153252 0 0 1 0 17.148278l-39.960208 39.999539a12.07459 12.07459 0 0 1-8.554474 3.539783zM220.312112 334.253769l490.869467 490.889132 29.891494-29.871829-490.889132-490.889132z" fill="#231815" p-id="2439"></path></svg>